<svg width="1005" height="380" viewBox="0 0 1005 380" fill="none" xmlns="http://www.w3.org/2000/svg">
<path fill-rule="evenodd" clip-rule="evenodd" d="M151.35 62.5267C168.732 52.4911 190.148 52.4911 207.53 62.5267L275.79 101.937C293.172 111.972 303.88 130.519 303.88 150.59V229.41C303.88 249.481 293.172 268.028 275.79 278.063L207.53 317.473C190.148 327.509 168.732 327.509 151.35 317.473L83.09 278.063C65.7078 268.028 55 249.481 55 229.41V150.59C55 130.519 65.7078 111.972 83.09 101.937L151.35 62.5267ZM125.421 108.971H138.926C161.301 108.971 179.44 127.11 179.44 149.485V176.552C179.472 198.901 197.598 217.008 219.954 217.008L233.459 217.011V271.03H219.954C197.579 271.03 179.44 252.891 179.44 230.516V217.011L125.421 217.008V108.971Z" fill="white"/>
<path d="M430.181 121V228.856C430.181 231.938 430.823 234.185 432.107 235.597C433.391 236.881 435.766 237.523 439.233 237.523H452.137V259.672H430.951C421.193 259.672 413.553 257.746 408.032 253.894C402.639 250.042 399.943 242.723 399.943 231.938V121H430.181Z" fill="white"/>
<path d="M633.019 202.277C633.019 189.566 627.498 183.21 616.455 183.21C610.934 183.21 606.312 185.136 602.588 188.988C598.864 192.711 597.003 198.168 597.003 205.359V259.672H566.764V159.52H596.232V173.002C599.956 168.123 604.45 164.271 609.714 161.446C614.979 158.621 620.949 157.209 627.626 157.209C638.668 157.209 647.335 160.74 653.627 167.802C660.047 174.735 663.257 185.007 663.257 198.618V259.672H633.019V202.277Z" fill="white"/>
<path fill-rule="evenodd" clip-rule="evenodd" d="M726.946 259.094C732.082 257.04 736.705 253.701 740.813 249.079V259.672H769.511V187.832C769.511 178.202 765.659 170.691 757.955 165.298C750.379 159.905 739.144 157.209 724.25 157.209C710.511 157.209 699.34 160.226 690.737 166.261C682.135 172.296 677.769 180.963 677.641 192.262H707.686C707.815 188.282 709.355 185.136 712.309 182.825C715.39 180.513 719.499 179.358 724.635 179.358C730.285 179.358 734.265 180.449 736.576 182.632C738.887 184.686 740.043 187.64 740.043 191.492V195.536L712.694 200.159C698.313 202.598 687.977 206.193 681.685 210.944C675.522 215.567 672.44 222.308 672.44 231.167C672.44 240.926 675.779 248.501 682.456 253.894C689.261 259.287 698.185 261.983 709.227 261.983C716.032 261.983 721.939 261.02 726.946 259.094ZM706.916 238.293C704.476 236.239 703.256 233.478 703.256 230.012C703.256 226.545 704.476 223.977 706.916 222.308C709.355 220.638 713.336 219.29 718.857 218.263L740.043 214.026V221.537C740.043 228.086 737.924 233.029 733.687 236.367C729.45 239.577 724.186 241.182 717.894 241.182C713.143 241.182 709.484 240.219 706.916 238.293Z" fill="white"/>
<path fill-rule="evenodd" clip-rule="evenodd" d="M920.989 249.079C916.88 253.701 912.258 257.04 907.122 259.094C902.114 261.02 896.208 261.983 889.403 261.983C878.36 261.983 869.437 259.287 862.631 253.894C855.955 248.501 852.616 240.926 852.616 231.167C852.616 222.308 855.698 215.567 861.861 210.944C868.153 206.193 878.489 202.598 892.87 200.159L920.219 195.536V191.492C920.219 187.64 919.063 184.686 916.752 182.632C914.441 180.449 910.46 179.358 904.811 179.358C899.675 179.358 895.566 180.513 892.484 182.825C889.531 185.136 887.99 188.282 887.862 192.262H857.816C857.945 180.963 862.31 172.296 870.913 166.261C879.516 160.226 890.687 157.209 904.426 157.209C919.32 157.209 930.555 159.905 938.131 165.298C945.835 170.691 949.687 178.202 949.687 187.832V259.672H920.989V249.079ZM883.432 230.012C883.432 233.478 884.652 236.239 887.092 238.293C889.66 240.219 893.319 241.182 898.07 241.182C904.361 241.182 909.626 239.577 913.863 236.367C918.1 233.029 920.219 228.086 920.219 221.537V214.026L899.033 218.263C893.512 219.29 889.531 220.638 887.092 222.308C884.652 223.977 883.432 226.545 883.432 230.012Z" fill="white"/>
<path d="M781.36 159.52H810.828V177.817C816.477 164.849 826.107 158.364 839.718 158.364H847.999V185.906H838.369C829.51 185.906 822.833 188.153 818.339 192.647C813.845 197.013 811.598 204.46 811.598 214.989V259.672H781.36V159.52Z" fill="white"/>
<path d="M475.013 274.31H458.449V298.192H483.487C493.888 298.192 501.977 295.56 507.755 290.295C513.533 285.031 518.284 277.263 522.007 266.991L560.913 159.52H528.363L507.37 232.708L485.799 159.52H453.249L490.999 261.598L490.806 261.983C489.265 266.991 487.468 270.265 485.413 271.806C483.487 273.475 480.021 274.31 475.013 274.31Z" fill="white"/>
</svg>
